<svg viewBox="0 0 443 73" xmlns="http://www.w3.org/2000/svg">
<path d="M0.0575365 63.8396C0.0575365 62.8724 0.172609 62.019 0.460292 61.2224C0.863047 60.1414 1.61102 59.231 2.5316 59.231C3.16451 59.231 3.79741 59.6293 3.79741 60.5396C3.79741 62.3603 1.32334 61.7914 1.32334 64.5793C1.32334 67.3672 3.73987 69.7569 8.68801 69.7569C23.5324 69.7569 38.8946 48.6483 49.8266 31.9776C49.1361 31.9207 48.3882 31.9207 47.6977 31.9207C39.47 31.9207 34.9822 35.3345 32.5081 38.9759L31.8752 38.6914C34.5794 34.0259 40.0454 29.7586 49.654 29.7586C50.2293 29.7586 50.6896 29.7586 51.265 29.8155L57.5365 19.9724L63.8655 10.3L55.1775 10.4138C43.8428 10.5276 38.2617 12.0638 38.2617 17.8672C38.2617 20.3138 39.2399 22.3621 41.081 24.9793L40.3906 25.5483C37.6288 22.8172 36.1904 20.6552 36.1904 17.2414C36.1904 12.2345 39.2974 9.33276 45.7415 7.96724C48.906 7.28448 52.7034 7 57.8817 7H70.137L62.7723 48.819C62.6572 49.5586 62.5421 50.6396 62.5421 50.981C62.5421 51.7776 63.0024 52.5741 64.0381 52.5741C65.4765 52.5741 67.778 50.8672 70.3671 47.3397L71 48.0793C68.0081 52.5172 64.7285 55.9879 61.6216 55.9879C59.6078 55.9879 58.457 54.5086 58.457 51.9483C58.457 50.9241 58.6872 49.5586 59.0324 47.6241L61.2188 35.3914C58.6872 33.9121 55.4652 32.7172 51.8979 32.2621C41.081 49.8431 25.6037 73 10.3566 73C4.2577 73 0 69.1879 0 63.8396H0.0575365ZM61.9668 31.5793L65.8792 9.67414L58.9749 20.7121C57.3063 23.3862 55.4652 26.5155 53.3363 29.9293C56.6734 30.2707 59.7804 30.9534 61.9668 31.5793Z" />
<path d="M83.5985 25.3666H77V24.3826C80.854 24.3826 86.0511 22.0675 87.511 19.0579H88.4453L85.7591 33.2958H85.9927C88.9124 26.6978 94.5182 19 99.4818 19C100.591 19 101 19.4051 101 20.0418C101 20.9678 100.007 22.1254 98.5474 23.4566C93.7007 23.4566 89.4964 28.0868 86.927 33.8167C85.292 37.3473 84.4161 41.2251 83.5401 45.6238L81.7883 55H78.1679L83.5401 25.4244L83.5985 25.3666Z" />
<path d="M104 52.2596C104 51.2813 104.226 49.7852 104.566 47.8286L109.547 20.2647H104.509V19.344C109.151 19.2864 112.094 17.9054 113.792 11H114.698L113.396 18.3082C117.132 18.5384 118.774 18.4233 122 17.6752V18.3082C119.736 19.6893 117.925 20.2647 114.755 20.2647H113.057L107.962 48.7494C107.849 49.4974 107.736 50.1304 107.736 50.5908C107.736 51.7417 108.189 52.5473 109.208 52.5473C110.623 52.5473 112.887 50.821 115.434 47.2532L116.113 48.0588C113.17 52.5473 110.057 56 107.113 56C105.019 56 104 54.3887 104 52.202V52.2596Z" />
<path d="M197.497 45.6126L201.316 24.7644C202.57 18.1414 205.021 13.6492 208.383 10.5969L208.782 11C207.642 13.534 206.959 15.5497 205.477 23.3822L201.601 44.5183C201.202 46.6492 201.031 48.2042 201.031 49.0681C201.031 52.4084 202.171 53.5026 207.187 53.5026H207.813C220.466 53.5026 230.782 43.1937 230.782 26.8377C230.782 11.8063 221.777 2.82199 207.927 2.82199C193.394 2.82199 180.969 12.9005 180.969 28.0471C180.969 30.8115 181.368 33.2304 182.109 35.3037C190.886 35.5916 194.819 37.3194 194.819 40.4293C194.819 42.445 192.881 43.9424 189.974 43.9424C186.269 43.9424 181.197 41.9267 178.461 36.5707C158.57 36.2827 136 26.4346 136 13.1309C136 6.68063 141.528 0 147 0C148.767 0 150.021 0.691099 150.021 1.84293C150.021 2.59162 149.451 3.16754 148.596 3.16754C147.171 3.16754 146.487 1.78534 144.834 1.78534C141.87 1.78534 139.99 5.93194 139.99 10.3665C139.99 24.7068 159.824 34.555 177.948 35.3037C177.15 33.2304 176.637 30.6963 176.637 27.7016C176.637 11.4607 191 1.3822 207.87 1.3822C224.741 1.3822 235 11.4031 235 26.6073C235 41.8115 225.14 55 206.674 55H189.86V53.8482C194.591 53.8482 196.016 53.0419 197.383 45.6702L197.497 45.6126ZM190.43 42.7906C192.14 42.7906 193.736 41.9843 193.736 40.3141C193.736 38.2408 190.544 36.6283 182.679 36.4555C184.446 40.5445 187.466 42.7906 190.487 42.7906H190.43Z" />
<path d="M241.778 52.2222C241.778 51.2492 242 49.7609 242.333 47.8148L246.222 25.5488H240V24.5758C243.667 24.5758 248.611 22.2862 250 19.3098H250.778L245.667 48.7879C245.556 49.532 245.444 50.1616 245.444 50.6195C245.444 51.7643 245.889 52.5657 246.889 52.5657C248.278 52.5657 250.5 50.8485 253 47.2997L253.667 48.101C250.889 52.5657 247.722 56 244.778 56C242.722 56 241.722 54.3973 241.722 52.2222H241.778ZM251.111 5C252.778 5 254 6.25926 254 8.03367C254 10.037 252.444 11.5825 250.444 11.5825C248.778 11.5825 247.556 10.3232 247.556 8.54882C247.556 6.54545 249.111 5 251.111 5Z" />
<path d="M266.324 25.3666H260V24.3826C263.693 24.3826 268.674 22.0675 270.073 19.0579H270.968L268.394 33.2958H268.618C271.416 26.6978 276.788 19 281.545 19C282.608 19 283 19.4051 283 20.0418C283 20.9678 282.049 22.1254 280.65 23.4566C276.005 23.4566 271.976 28.0868 269.513 33.8167C267.946 37.3473 267.107 41.2251 266.268 45.6238L264.589 55H261.119L266.268 25.4244L266.324 25.3666Z" />
<path d="M282 42.5988C282 30.6232 291.302 19.332 301.803 19.332C305.569 19.332 308.936 20.8147 308.936 25.0916C308.936 29.7678 304.942 32.5051 299.805 34.1018C310.363 31.7637 323.546 18.3055 323.546 8.38289C323.546 4.84725 321.777 2.22403 319.152 2.22403C317.782 2.22403 317.097 2.90835 316.07 2.90835C315.157 2.90835 314.586 2.33809 314.586 1.59674C314.586 0.627291 315.499 0 317.04 0C320.864 0 326 3.53564 326 10.721C326 21.1568 315.613 30.7373 300.89 34.9572C296.324 36.2688 291.302 37.0672 286.565 37.2953C286.28 38.721 286.166 40.1466 286.166 41.6293C286.166 48.8717 289.647 53.6619 295.868 53.6619C301.46 53.6619 305.17 49.8411 307.852 46.0204L308.48 46.7617C305.626 51.2098 301.061 56 294.041 56C287.022 56 282 51.2098 282 42.5988ZM304.713 25.3768C304.713 22.6965 303.344 20.7006 300.319 20.7006C294.555 20.7006 288.734 27.7719 286.851 36.0407C297.237 35.8126 304.713 31.6497 304.713 25.3768Z" />
<path d="M322.057 42.2621C322.057 30.2558 330.677 19 341.408 19C345.746 19 349 20.7894 349 23.2137C349 24.3682 348.201 25.3495 346.717 25.3495C343.406 25.3495 343.577 20.6162 338.896 20.6162C331.989 20.6162 326.167 31.1217 326.167 41.1654C326.167 48.6693 329.364 53.6911 335.586 53.6911C340.152 53.6911 344.148 50.9782 347.516 45.8409L348.087 46.649C345.803 50.17 341.465 56 333.702 56C325.939 56 322 50.4587 322 42.1466L322.057 42.2621Z" />
<path d="M355 52.2596C355 51.2813 355.226 49.7852 355.566 47.8286L360.547 20.2647H355.509V19.344C360.151 19.2864 363.094 17.9054 364.792 11H365.698L364.396 18.3082C368.132 18.5384 369.774 18.4233 373 17.6752V18.3082C370.736 19.6893 368.925 20.2647 365.755 20.2647H364.057L358.962 48.7494C358.849 49.4974 358.736 50.1304 358.736 50.5908C358.736 51.7417 359.189 52.5473 360.208 52.5473C361.623 52.5473 363.887 50.821 366.434 47.2532L367.113 48.0588C364.17 52.5473 361.057 56 358.113 56C356.019 56 355 54.3887 355 52.202V52.2596Z" />
<path d="M373 42.2473C373 30.5661 380.714 19 391.629 19C399.114 19 403 24.5241 403 32.8103C403 44.4914 395.286 56 384.371 56C376.886 56 373 50.5334 373 42.2473ZM384.829 54.7341C392.829 54.7341 398.6 43.916 398.6 32.1773C398.6 24.4666 396.143 20.2659 391.114 20.2659C383.114 20.2659 377.343 31.084 377.343 42.8227C377.343 50.5334 379.8 54.7341 384.829 54.7341Z" />
<path d="M415.534 25.7508H409V24.7758C412.816 24.7758 417.963 22.4818 419.408 19.4995H420.333L417.558 34.2961H417.789C420.68 28.3889 425.133 24.4891 429.759 20.8759L433.228 18.1804C438.143 14.3952 440.745 11.4129 440.745 7.85714C440.745 4.76017 438.721 2.2367 436.119 2.2367C434.731 2.2367 433.98 2.92492 432.939 2.92492C432.014 2.92492 431.435 2.35141 431.435 1.60584C431.435 0.630866 432.361 0 433.98 0C437.796 0 443 3.38373 443 9.80709C443 15.0261 439.531 17.951 434.442 21.048L430.973 23.17C426.231 26.0375 421.605 29.1345 418.772 34.6976C416.69 38.8269 415.939 43.7591 415.418 46.3973L413.799 55H410.214L415.534 25.6934V25.7508Z" />
</svg>
