<svg viewBox="0 0 299 71" xmlns="http://www.w3.org/2000/svg">
<g>
<path d="M59.9428 44.2296L63.6719 24.1656C64.8964 17.7917 67.2897 13.4685 70.5736 10.5309L70.9632 10.9189C69.85 13.3576 69.1821 15.2975 67.735 22.8354L63.9502 43.1765C63.5606 45.2273 63.3936 46.7237 63.3936 47.5551C63.3936 50.7698 64.5068 51.8229 69.4048 51.8229H70.017C82.3733 51.8229 92.4476 41.9017 92.4476 26.1609C92.4476 11.6949 83.6535 3.04849 70.1283 3.04849C55.9353 3.04849 43.8016 12.7479 43.8016 27.3248C43.8016 29.9853 44.1913 32.3131 44.9148 34.3084C53.4863 34.5856 57.3268 36.2483 57.3268 39.2413C57.3268 41.1812 55.4344 42.6223 52.5958 42.6223C48.9779 42.6223 44.0243 40.6824 41.3526 35.5278C21.9277 35.2507 -0.113281 25.7729 -0.113281 12.9696C-0.00196331 6.70657 5.39696 0.277222 10.7402 0.277222C12.4656 0.277222 13.6901 0.942327 13.6901 2.05084C13.6901 2.77137 13.1336 3.32562 12.2987 3.32562C10.9072 3.32562 10.2393 1.99541 8.62518 1.99541C5.73091 1.99541 3.89416 5.98604 3.89416 10.2538C3.89416 24.0547 23.2635 33.5325 40.963 34.253C40.1838 32.2577 39.6829 29.819 39.6829 26.9369C39.6272 11.3069 53.6533 1.60743 70.1283 1.60743C86.6034 1.60743 96.622 11.2515 96.622 25.8838C96.622 40.5161 86.993 53.2085 68.9595 53.2085H52.5401V52.1C57.1598 52.1 58.5513 51.3241 59.8871 44.2296H59.9428ZM53.041 41.5137C54.7108 41.5137 56.2693 40.7378 56.2693 39.1305C56.2693 37.1351 53.1524 35.5832 45.4714 35.417C47.1968 39.3522 50.1468 41.5137 53.0967 41.5137H53.041Z" />
<path d="M112.541 54.3724C105.472 54.3724 100.797 49.6059 100.797 41.4029C100.797 29.7081 109.869 18.7339 120.111 18.7339C124.007 18.7339 127.012 20.3412 127.012 24.2764C127.012 31.5372 116.882 36.0266 105.305 36.1929C105.027 37.5785 104.916 39.075 104.916 40.4607C104.916 47.4997 108.311 52.1554 114.378 52.1554C119.944 52.1554 123.45 48.4419 126.066 44.7284L126.678 45.4489C123.895 49.7721 119.554 54.4279 112.597 54.4279L112.541 54.3724ZM122.893 24.5536C122.893 22.004 121.669 20.1195 118.663 20.1195C113.042 20.1195 107.365 26.9923 105.528 35.029C116.326 34.8073 122.893 30.5949 122.893 24.609V24.5536Z" />
<path d="M129.297 49.6613C129.297 48.3865 130.243 47.7214 131.245 47.7214C134.139 47.7214 133.917 53.0977 139.315 53.0977C143.1 53.0977 145.716 50.4927 145.716 46.6684C145.716 38.9088 135.364 37.4123 135.364 28.9876C135.364 24.609 138.258 22.0595 143.991 19.6207C149.946 17.0157 153.62 13.3022 153.62 8.36937C153.62 4.48959 151.282 2.05087 148.611 2.05087C147.219 2.05087 146.384 2.7714 145.382 2.7714C144.492 2.7714 143.935 2.21715 143.935 1.49661C143.935 0.554382 144.826 -0.0552979 146.384 -0.0552979C150.336 -0.0552979 156.236 3.49193 156.236 9.69958C156.236 15.2421 151.894 18.2351 144.492 20.7847C140.262 22.2257 138.035 24.1102 138.035 27.214C138.035 33.9759 148.944 36.8026 148.944 45.0056C148.944 50.271 144.603 54.2616 137.59 54.2616C131.913 54.2616 129.297 51.6012 129.297 49.5505V49.6613Z" />
<path d="M156.18 50.7144C156.18 49.7722 156.402 48.3311 156.736 46.4466L160.632 24.8861H154.398V23.9439C158.072 23.9439 163.026 21.7269 164.417 18.8448H165.196L160.076 47.3889C159.964 48.1094 159.853 48.7191 159.853 49.1625C159.853 50.271 160.298 51.047 161.3 51.047C162.692 51.047 164.918 49.3842 167.423 45.9478L168.091 46.7238C165.308 51.047 162.135 54.3725 159.185 54.3725C157.126 54.3725 156.124 52.8206 156.124 50.7144H156.18ZM165.53 4.9884C167.2 4.9884 168.425 6.20776 168.425 7.92595C168.425 9.86584 166.866 11.3623 164.862 11.3623C163.193 11.3623 161.968 10.143 161.968 8.42478C161.968 6.48489 163.527 4.9884 165.53 4.9884Z" />
<path d="M167.423 61.9104C167.423 56.9221 172.098 53.7075 176.774 52.5989L177.219 53.3749C173.49 54.816 171.208 57.5872 171.208 61.5224C171.208 66.8433 175.215 69.7808 181.894 69.7808C189.13 69.7808 195.586 66.3999 195.586 60.1922C195.586 56.257 192.97 53.3195 186.792 52.4327L180.837 51.5459C177.553 51.1025 173.935 49.606 173.935 46.613C173.935 43.8972 176.829 42.2344 181.282 41.5139C176.996 40.2945 174.38 37.1352 174.38 32.5349C174.38 25.4405 180.614 18.734 188.907 18.734C197.2 18.734 200.429 16.3507 202.933 16.3507C204.046 16.3507 204.826 16.905 204.826 17.9026C204.826 19.1774 203.601 20.5076 201.097 20.5076C199.037 20.5076 197.089 19.5654 193.972 19.5654L193.75 19.6762C195.642 20.563 199.538 23.3897 199.538 28.8214C199.538 35.2508 194.083 41.9573 185.122 41.9573H184.677C182.061 42.0127 177.33 42.8441 177.33 45.2828C177.33 46.6684 178.944 47.9432 182.117 48.3866L187.46 49.1626C195.809 50.4374 198.703 53.5966 198.703 58.4186C198.703 65.7902 191.356 70.8893 181.338 70.8893C172.543 70.8893 167.367 67.0096 167.367 61.7996L167.423 61.9104ZM185.623 40.9596C193.082 40.9596 195.419 34.1977 195.419 28.6552C195.419 23.8886 193.694 19.8425 188.351 19.8425C181.115 19.8425 178.555 27.1032 178.555 32.8121C178.555 38.5209 181.171 41.015 185.623 41.015V40.9596Z" />
<path d="M227.925 50.7144C227.925 49.7721 228.147 48.3311 228.481 46.4466L231.765 28.3779C232.044 26.826 232.155 25.9946 232.155 25.1078C232.155 23.0571 231.376 22.004 229.761 22.004C225.364 22.004 218.797 29.7635 214.789 38.6316C212.786 43.0657 211.672 47.2226 211.06 50.7698L210.67 53.1531H207.108L212.34 24.8861H206.051V23.9439C209.836 23.9439 214.734 21.7269 216.125 18.8447H217.016L213.342 38.7425H213.62C216.904 30.7058 224.363 18.7339 231.765 18.7339C234.437 18.7339 235.884 20.3966 235.884 23.1125C235.884 23.9993 235.773 25.7175 235.327 27.8791L231.765 47.3334C231.654 48.0539 231.543 48.6636 231.543 49.107C231.543 50.2155 231.988 50.9915 232.99 50.9915C234.381 50.9915 236.608 49.3287 239.112 45.8924L239.78 46.6683C236.886 50.9915 233.825 54.317 230.875 54.317C228.815 54.317 227.813 52.7651 227.813 50.6589L227.925 50.7144Z" />
<path d="M256.033 54.3724C248.964 54.3724 244.289 49.6059 244.289 41.4029C244.289 29.7081 253.361 18.7339 263.603 18.7339C267.499 18.7339 270.504 20.3412 270.504 24.2764C270.504 31.5372 260.375 36.0266 248.797 36.1929C248.519 37.5785 248.408 39.075 248.408 40.4607C248.408 47.4997 251.803 52.1554 257.87 52.1554C263.436 52.1554 266.942 48.4419 269.558 44.7284L270.17 45.4489C267.388 49.7721 263.046 54.4279 256.089 54.4279L256.033 54.3724ZM266.386 24.5536C266.386 22.004 265.161 20.1195 262.156 20.1195C256.534 20.1195 250.857 26.9923 249.02 35.029C259.818 34.8073 266.386 30.5949 266.386 24.609V24.5536Z" />
<path d="M282.414 24.8861H276.125V23.9439C279.798 23.9439 284.752 21.7269 286.144 18.8447H287.034L284.474 32.4794H284.696C287.479 26.1609 292.823 18.7893 297.554 18.7893C298.611 18.7893 299.001 19.1773 299.001 19.787C299.001 20.6738 298.055 21.7823 296.663 23.0571C292.043 23.0571 288.036 27.4911 285.587 32.9782C284.029 36.3592 283.194 40.0727 282.359 44.285L280.689 53.2639H277.238L282.359 24.9415L282.414 24.8861Z" />
</g>
</svg>
