<svg viewBox="0 0 277 74" xmlns="http://www.w3.org/2000/svg">
<g >
<path d="M0 61.0689C0 57.0483 1.67617 54.9837 3.19012 54.9837C4.16338 54.9837 4.86629 55.6901 4.86629 56.668C4.86629 58.7326 1.40582 59.276 1.40582 62.7532C1.40582 66.6108 5.67734 70.5227 12.2198 70.5227C30.0629 70.5227 41.039 41.7811 46.1757 27.0572H45.9594C39.2007 40.5858 32.1716 53.5711 20.4925 53.5711C11.4628 53.5711 4.65001 45.856 4.65001 34.555C4.75815 19.9397 16.0047 7.82368 31.1443 7.82368C36.2268 7.82368 39.5251 9.18197 41.3094 9.18197C42.553 9.18197 43.2559 8.52999 43.4722 6.8457H44.4995L44.7158 19.831H43.6885C42.2826 12.9309 38.4437 9.12764 30.982 9.12764C17.3024 9.12764 8.81339 21.787 8.81339 34.066C8.81339 43.9544 14.3285 50.4199 21.5198 50.4199C35.4698 50.4199 44.9861 26.4595 50.3931 14.8868C54.935 5.16142 58.4495 -0.0544434 62.5588 -0.0544434C64.4513 -0.0544434 65.2623 1.03219 65.2623 2.33616C65.2623 4.02045 63.8565 4.72676 61.6937 5.16142C56.7193 6.08506 53.9077 8.96465 50.8798 16.9514C45.4187 31.2407 34.7129 73.9456 13.0308 73.9456C4.86629 73.9456 0 67.8061 0 60.9602V61.0689Z"/>
<path d="M60.6646 26.84H54.5547V25.9163C58.1233 25.9163 62.9355 23.743 64.2873 20.9178H65.1524L62.557 34.9354H62.7733C65.4768 29.3392 69.6402 25.6447 73.9658 22.2217L77.21 19.6681C81.8059 16.0822 84.2391 13.257 84.2391 9.88841C84.2391 6.95449 82.3466 4.56389 79.9135 4.56389C78.6158 4.56389 77.9129 5.21587 76.9396 5.21587C76.0745 5.21587 75.5338 4.67255 75.5338 3.96624C75.5338 3.0426 76.3989 2.44495 77.9129 2.44495C81.4815 2.44495 86.3478 5.65053 86.3478 11.7357C86.3478 16.6799 83.1036 19.4508 78.3454 22.3847L75.1012 24.395C70.6675 27.1116 66.3419 30.0455 63.6925 35.3157C61.746 39.2276 61.0431 43.9002 60.5564 46.3994L59.0425 54.5492H55.6902L60.6646 26.7856V26.84Z"/>
<path d="M97.0009 52.2129C97.0009 51.2349 97.2172 49.8766 97.5416 48.0837L98.5689 42.5418H98.1364C95.2166 48.4097 89.9178 55.7445 83.7538 55.7445C79.1579 55.7445 76.5625 52.0499 76.5625 45.0954C76.5625 32.9794 84.673 20.8091 94.5137 20.8091C98.0823 20.8091 100.624 22.439 102.678 22.439C103.76 22.439 104.408 22.0044 105.165 20.8091H105.922L100.84 48.627C100.624 49.605 100.57 50.3656 100.57 50.6916C100.57 51.7239 101.002 52.4302 101.975 52.4302C103.327 52.4302 105.49 50.8003 107.923 47.4317L108.572 48.1923C105.868 52.4302 102.786 55.6901 99.9207 55.6901C97.9201 55.6901 96.9468 54.1688 96.9468 52.1042L97.0009 52.2129ZM85.0515 53.0822C88.8904 53.0822 93.8649 48.2467 96.8928 42.4332C98.8393 38.7929 99.7585 35.2614 100.407 31.7841L101.597 25.536C99.7585 23.5257 97.1631 22.0044 94.4056 22.0044C86.9439 22.0044 80.5096 32.5448 80.5096 44.2261C80.5096 50.0396 82.0776 53.0279 85.0515 53.0279V53.0822Z"/>
<path d="M112.357 65.0352L119.278 26.7856H113.168V25.8619C116.737 25.8619 121.549 23.6887 122.901 20.8634H123.766L121.441 33.8487H121.711C124.577 28.0895 129.713 20.8634 136.148 20.8634C140.96 20.8634 143.988 24.8296 143.988 32.0014C143.988 43.2481 136.472 55.7988 125.172 55.7988C121.873 55.7988 119.224 54.7122 117.764 53.8428L115.818 64.6006C115.547 65.9045 115.439 66.8282 115.439 67.4258C115.439 69.7077 116.737 70.0337 119.602 70.0337V70.9574H106.68V70.0337C110.032 70.0337 111.492 69.7621 112.303 65.0895L112.357 65.0352ZM125.929 54.6035C134.688 54.6035 139.987 42.2158 139.987 32.7077C139.987 27.1116 138.04 23.6343 134.688 23.6343C130.795 23.6343 125.712 28.3069 122.684 34.3377C120.954 37.8149 120.143 40.9662 119.44 44.8781L118.359 50.8546C120.305 52.8649 122.63 54.5492 125.929 54.5492V54.6035Z"/>
<path d="M169.075 52.2129C169.075 51.2893 169.291 49.8766 169.616 48.0294L172.806 30.3172C173.076 28.7959 173.184 28.0352 173.184 27.1116C173.184 25.1013 172.427 24.069 170.859 24.069C166.588 24.069 160.207 31.6755 156.314 40.3686C154.368 44.7151 153.287 48.79 152.692 52.2672L152.313 54.6035H148.961L157.504 7.22613H151.394V6.30249C154.963 6.30249 159.775 4.12921 161.127 1.30396H161.992L154.909 40.4772H155.179C158.369 32.5991 165.614 20.8634 172.806 20.8634C175.401 20.8634 176.807 22.4391 176.807 25.1556C176.807 26.025 176.699 27.7092 176.266 29.8282L172.806 48.8987C172.698 49.605 172.589 50.2026 172.589 50.6373C172.589 51.7239 173.022 52.4846 173.995 52.4846C175.347 52.4846 177.51 50.8546 179.943 47.486L180.592 48.2467C177.78 52.4846 174.806 55.7445 171.941 55.7445C169.94 55.7445 168.967 54.2232 168.967 52.1586L169.075 52.2129Z"/>
<path d="M186.648 52.213C186.648 51.2893 186.864 49.8767 187.189 48.0294L190.974 26.8943H184.918V25.9707C188.487 25.9707 193.299 23.7974 194.651 20.9721H195.408L190.433 48.953C190.325 49.6594 190.217 50.257 190.217 50.6917C190.217 51.7783 190.649 52.5389 191.623 52.5389C192.974 52.5389 195.137 50.909 197.57 47.5404L198.219 48.3011C195.516 52.5389 192.434 55.7989 189.568 55.7989C187.567 55.7989 186.594 54.2776 186.594 52.213H186.648ZM195.732 7.38916C197.354 7.38916 198.544 8.58446 198.544 10.2687C198.544 12.1704 197.03 13.6373 195.083 13.6373C193.461 13.6373 192.271 12.442 192.271 10.7577C192.271 8.85612 193.785 7.38916 195.732 7.38916Z"/>
<path d="M203.195 42.5418C203.195 31.4038 211.359 20.8634 221.524 20.8634C225.634 20.8634 228.716 22.5477 228.716 24.7753C228.716 25.8619 228.013 26.8399 226.553 26.8399C223.525 26.8399 223.579 22.3847 219.145 22.3847C212.549 22.3847 207.088 32.3274 207.088 41.7268C207.088 49.116 210.44 54.2232 215.955 54.2232C226.337 54.2232 246.018 35.6417 264.023 35.6417C273.756 35.6417 276.946 41.1292 276.946 45.5301C276.946 47.812 275.919 51.5066 273.918 51.5066C273.215 51.5066 272.674 50.9089 272.674 50.2569C272.674 49.5506 273.107 49.0616 273.972 48.5183C274.837 47.9207 275.702 47.2144 275.702 45.5844C275.702 41.4552 270.566 39.0102 263.969 39.0102C246.775 39.0102 226.228 55.6901 214.225 55.6901C207.791 55.6901 203.141 50.8546 203.141 42.4875L203.195 42.5418Z"/>
</g>
</svg>
