<svg viewBox="0 0 217 71" fill="none" xmlns="http://www.w3.org/2000/svg">
<g>
<path d="M78.8179 44.2643L83.8761 16.9182C84.3208 14.3111 84.5987 12.8689 84.5987 11.6486C84.5987 8.70879 83.2091 7.9877 79.2626 7.9877C72.3702 7.9877 70.0357 10.7057 66.7562 20.0244H65.6445L70.258 4.21582H71.2585C71.2029 5.65801 71.3141 6.65645 73.593 6.65645H100.718C103.608 6.65645 104.442 5.65801 104.442 4.21582H105.554L105.22 20.0244H104.109C104.109 10.5947 100.718 7.9877 94.8817 7.9877C89.6568 7.9877 88.9898 9.37441 87.767 16.4189L82.7644 43.6541C82.3753 45.9283 82.2086 47.2041 82.2086 48.2025C82.2086 51.6416 83.8761 52.1408 87.6002 52.1408V53.2502H71.4808V52.1408C76.0943 52.1408 77.4839 51.3643 78.8179 44.2643Z" />
<path d="M81.7088 65.2869C81.7088 63.8447 82.9873 62.5689 84.488 62.5689C88.2122 62.5689 86.489 69.7244 95.2157 69.7244C100.552 69.7244 107.667 67.1173 112.058 62.1251C115.837 57.7986 116.393 53.0283 116.393 45.9837C116.393 36.0548 114.503 22.0212 109.445 22.0212C107.667 22.0212 106.11 23.5744 105.388 27.1244L104.387 26.5697C105.11 21.9658 107.166 18.6931 110.501 18.6931C117.171 18.6931 119.839 32.8376 119.839 45.9283C119.839 50.4767 119.395 53.3056 119.117 54.7478L119.784 55.0251C124.786 48.3689 130.178 38.2181 130.178 30.5634C130.178 23.5744 125.62 23.9072 125.62 20.9673C125.62 19.5251 126.676 18.6931 127.899 18.6931C129.9 18.6931 132.346 20.7455 132.346 26.6806C132.346 35.0564 127.566 46.7048 120.618 55.7462C113.281 65.2314 103.942 70.8892 94.2708 70.8892C87.9342 70.8892 81.5977 68.5041 81.5977 65.1759L81.7088 65.2869Z" />
<path d="M136.793 63.8448L143.908 24.7947H137.627V23.8518C141.296 23.8518 146.243 21.633 147.632 18.7487H148.522L146.131 32.0057H146.409C149.355 26.126 154.636 18.7487 161.25 18.7487C166.197 18.7487 169.31 22.7979 169.31 30.1197C169.31 41.6018 161.584 54.4151 149.967 54.4151C146.576 54.4151 143.853 53.3057 142.352 52.4182L140.351 63.401C140.073 64.7323 139.962 65.6752 139.962 66.2854C139.962 68.6151 141.296 68.9479 144.242 68.9479V69.8908H130.957V68.9479C134.403 68.9479 135.904 68.6705 136.738 63.9002L136.793 63.8448ZM150.745 53.1948C159.75 53.1948 165.197 40.5479 165.197 30.8408C165.197 25.1276 163.196 21.5776 159.75 21.5776C155.748 21.5776 150.523 26.3479 147.41 32.5049C145.631 36.0549 144.797 39.2721 144.075 43.2658L142.963 49.3674C144.964 51.4197 147.354 53.1393 150.745 53.1393V53.1948Z" />
<path d="M174.145 41.3797C174.145 29.7313 183.205 18.7485 193.432 18.7485C197.101 18.7485 200.38 20.1907 200.38 24.3508C200.38 28.8993 196.489 31.5618 191.487 33.1149C201.77 30.8407 214.61 17.75 214.61 8.09849C214.61 4.65942 212.887 2.10786 210.33 2.10786C208.996 2.10786 208.329 2.77349 207.328 2.77349C206.439 2.77349 205.883 2.2188 205.883 1.49771C205.883 0.554736 206.772 -0.0554199 208.273 -0.0554199C211.997 -0.0554199 217 3.38364 217 10.3727C217 20.5235 206.884 29.8422 192.543 33.9469C188.096 35.2227 183.205 35.9993 178.591 36.2211C178.313 37.6079 178.202 38.9946 178.202 40.4368C178.202 47.4813 181.593 52.1407 187.651 52.1407C193.099 52.1407 196.712 48.4243 199.324 44.7079L199.936 45.429C197.156 49.7555 192.765 54.4149 185.873 54.4149C178.98 54.4149 174.145 49.7555 174.145 41.3797ZM196.267 24.6282C196.267 22.0211 194.933 20.0797 191.987 20.0797C186.373 20.0797 180.703 26.9579 178.869 35.0008C188.985 34.779 196.267 30.7297 196.267 24.6282Z" />
<g>
<path d="M39.1704 13.1221C39.1704 16.7454 36.295 19.5761 32.922 21.3877C36.6821 21.3877 40.8845 21.8406 44.8105 21.8406C48.7365 21.8406 51.3354 20.765 51.3354 17.9909C51.3354 13.6316 46.0823 12.6692 43.9258 12.2729L44.147 11.3105C46.4141 11.5936 53.1601 13.6883 53.1601 18.557C53.1601 22.6332 49.5106 23.8787 45.087 23.8787C41.6587 23.8787 37.0692 22.9163 34.0832 22.4634C38.6727 23.4824 45.7505 27.1057 45.7505 35.4279C45.7505 38.485 44.8105 41.5988 43.0964 44.3728C50.0636 50.9966 52.0542 51.9024 54.4872 51.9024V53.0913H43.0964V51.9024C45.3082 51.9024 45.7505 51.2231 41.2163 46.9204C37.5668 51.2231 31.9267 54.2236 25.2912 54.2236C14.5086 54.2236 8.03906 47.2601 8.03906 39.4474C8.03906 33.1067 12.2415 28.6342 18.6005 24.5015C16.3887 21.5575 15.0616 18.4438 15.0616 14.9904C15.0616 9.49886 19.3746 4.29041 27.4478 4.29041C35.5209 4.29041 39.1704 8.64965 39.1704 13.0655V13.1221ZM25.7889 53.0913C32.4796 53.0347 37.2351 50.1474 39.8339 45.6749L22.4712 28.9739C21.2547 27.8417 20.1488 26.5962 19.1534 25.3507C14.6192 28.1813 11.7992 33.1067 11.7992 38.9945C11.7992 47.8263 16.8863 53.0913 25.7889 53.0347V53.0913ZM27.4478 28.9739L41.161 42.6178C41.7693 40.8062 42.101 38.7681 42.101 36.6734C42.101 27.502 33.5856 22.9729 28.8301 22.9729H27.6136V21.784C31.4843 21.8972 35.6315 18.274 35.6315 13.1787C35.6315 8.53642 32.6455 5.30945 27.7242 5.30945C22.3606 5.30945 18.7111 10.065 18.7111 14.5941C18.7111 18.8967 21.0888 22.7464 27.3925 29.0305L27.4478 28.9739Z" />
</g>
</g>
</svg>
