<svg viewBox="0 0 713 117" fill="none" xmlns="http://www.w3.org/2000/svg">
<g>
<path d="M116.791 84.4354H79.6445V82.8847C86.0812 82.8847 88.0199 81.7992 89.8811 71.8748L97.326 32.6422C98.7219 25.2764 102.444 18.2982 107.563 12.8708C102.289 11.4752 96.5505 10.3897 90.8893 10.3897C71.3465 10.3897 57.8527 23.6481 57.8527 42.9543C57.8527 45.7456 58.1629 48.2267 58.7058 50.5527C68.9425 52.7237 77.2404 55.3599 77.2404 60.8648C77.2404 63.346 75.4567 65.8271 70.6486 65.8271C63.8241 65.8271 57.1548 61.0199 54.363 51.9483C47.8487 51.0179 40.559 50.165 33.9672 49.0795C14.1142 45.5905 0 39 0 25.509C0 14.5766 9.30607 8.45132 14.8897 8.45132C17.1387 8.45132 18.2244 9.38174 18.2244 10.8549C18.2244 11.9404 17.3713 12.7157 16.2856 12.7157C14.502 12.7157 13.6489 11.01 11.555 11.01C7.83261 11.01 4.65304 16.0497 4.65304 22.0974C4.65304 34.1153 16.9836 42.0239 37.3018 46.4434C42.4977 47.5289 48.314 48.4593 53.7426 49.5448C53.3548 47.5289 53.1222 45.2028 53.1222 42.6442C53.1222 20.8569 71.8118 8.68392 90.2689 8.68392C95.5423 8.68392 102.755 9.69187 109.734 10.8549C115.473 5.42746 122.685 2.01593 129.82 2.01593C136.644 2.01593 140.909 5.11732 140.909 9.38174C140.909 13.0259 137.807 17.9106 129.897 17.9106C124.701 17.9106 118.265 15.7396 111.208 13.7237C107.33 18.4533 104.228 24.8112 102.755 32.5646L99.575 49.2346H106.71C116.016 49.2346 117.489 46.0557 118.73 38.9225H120.591L116.714 61.4076H114.852C116.248 53.8092 115.628 51.173 106.554 51.173H99.1872L95.5423 70.3241C94.9995 73.1929 94.6893 75.1312 94.6893 76.4493C94.6893 80.9464 97.1709 82.4195 103.142 82.4195H107.485C118.265 82.4195 123.693 78.6203 129.277 67.3778L130.673 67.998L121.91 88.2346L120.514 87.6919C121.599 85.0557 120.048 84.3579 116.791 84.3579V84.4354ZM71.3465 64.2764C74.2159 64.2764 75.6894 62.8807 75.6894 60.9424C75.6894 56.6004 68.7098 54.3519 59.3262 52.7237C61.4976 59.8569 66.1506 64.2764 71.3465 64.2764ZM130.595 13.5686C135.791 13.5686 138.35 11.6302 138.35 8.99406C138.35 6.04774 135.248 3.56663 130.052 3.56663C124.546 3.56663 118.497 6.20281 113.301 11.3976C120.359 12.4831 126.795 13.5686 130.595 13.5686Z" fill="white"/>
<path d="M194.108 80.7913C194.108 79.4732 194.419 77.4573 194.884 74.8211L199.459 49.5448C199.847 47.3738 200.002 46.2108 200.002 44.9702C200.002 42.1014 199.149 40.6283 197.133 40.6283C191.394 40.6283 182.166 51.4831 176.582 63.8887C173.79 70.0915 172.239 75.9066 171.386 80.8688L170.843 84.2028H165.88L172.084 49.5448C172.472 47.3738 172.627 46.2108 172.627 44.9702C172.627 42.1014 171.774 40.6283 169.758 40.6283C164.019 40.6283 154.79 51.4831 149.207 63.8887C146.415 70.0915 144.864 75.9066 144.011 80.8688L143.468 84.2028H138.505L145.794 44.6601H137.031V43.342C142.305 43.342 149.129 40.2406 151.068 36.2088H152.309L147.19 64.0438H147.578C152.154 52.8012 162.623 36.0537 172.627 36.0537C176.194 36.0537 177.9 38.3798 177.9 42.179C177.9 43.4195 177.745 45.8231 177.125 48.847L174.411 64.0438H174.876C179.451 52.8012 189.921 36.0537 199.925 36.0537C203.492 36.0537 205.198 38.3798 205.198 42.179C205.198 43.4195 205.043 45.8231 204.423 48.847L199.459 76.0617C199.304 77.0696 199.149 77.9225 199.149 78.5428C199.149 80.0935 199.77 81.179 201.166 81.179C203.104 81.179 206.206 78.8529 209.696 74.0458L210.627 75.1312C206.594 81.179 202.329 85.831 198.219 85.831C195.349 85.831 193.953 83.6601 193.953 80.7137L194.108 80.7913Z" fill="white"/>
<path d="M219.314 80.7913C219.314 79.4732 219.624 77.4573 220.089 74.8211L225.518 44.6601H216.832V43.342C221.95 43.342 228.852 40.2406 230.791 36.2088H231.877L224.742 76.1392C224.587 77.1471 224.432 78 224.432 78.6203C224.432 80.171 225.052 81.2565 226.448 81.2565C228.387 81.2565 231.489 78.9304 234.979 74.1233L235.909 75.2088C232.032 81.2565 227.612 85.9086 223.501 85.9086C220.632 85.9086 219.236 83.7376 219.236 80.7913H219.314ZM232.342 16.8251C234.669 16.8251 236.375 18.5308 236.375 20.9344C236.375 23.6481 234.203 25.7416 231.412 25.7416C229.085 25.7416 227.379 24.0358 227.379 21.6322C227.379 18.9185 229.55 16.8251 232.342 16.8251Z" fill="white"/>
<path d="M244.206 80.7913C244.206 79.4732 244.517 77.4573 244.982 74.8211L255.606 16.5925H246.843V15.2744C251.962 15.2744 258.864 12.173 260.802 8.14117H262.043L249.635 76.1392C249.48 77.1471 249.325 78 249.325 78.6203C249.325 80.171 249.945 81.2565 251.341 81.2565C253.28 81.2565 256.382 78.9304 259.872 74.1233L260.802 75.2088C256.77 81.2565 252.504 85.9086 248.394 85.9086C245.525 85.9086 244.129 83.7376 244.129 80.7913H244.206Z" fill="white"/>
<path d="M267.238 98.5467C267.238 96.841 267.393 94.7475 268.013 91.5686L276.466 44.7376H267.781V43.4195C272.899 43.4195 279.801 40.3181 281.74 36.2863H282.825L272.666 92.5766C272.278 94.5925 272.123 96.6084 272.123 98.2366C272.123 104.439 274.527 107.386 279.646 107.386C292.674 107.386 323.617 88.8549 347.27 88.8549C362.625 88.8549 366.813 96.6859 366.813 102.811C366.813 106.533 365.262 111.573 362.547 111.573C361.462 111.573 360.686 110.72 360.686 109.789C360.686 108.781 361.307 108.084 362.547 107.308C363.866 106.378 365.029 105.447 365.029 103.044C365.029 97.4613 358.36 93.7396 347.347 93.7396C324.935 93.7396 293.062 109.247 277.94 109.247C270.65 109.247 267.16 105.68 267.16 98.6243L267.238 98.5467ZM283.368 16.8251C285.695 16.8251 287.401 18.5308 287.401 20.9344C287.401 23.6481 285.229 25.7416 282.438 25.7416C280.111 25.7416 278.405 24.0358 278.405 21.6322C278.405 18.9185 280.576 16.8251 283.368 16.8251Z" fill="white"/>
<path d="M306.246 85.9086C296.397 85.9086 289.883 79.2406 289.883 67.7654C289.883 51.4056 302.524 36.0537 316.793 36.0537C322.221 36.0537 326.409 38.3022 326.409 43.8072C326.409 53.9642 312.295 60.2446 296.164 60.4772C295.777 62.4155 295.622 64.509 295.622 66.4473C295.622 76.2943 300.352 82.8072 308.805 82.8072C316.56 82.8072 321.446 77.6124 325.091 72.4175L325.944 73.4255C322.066 79.4732 316.017 85.9861 306.324 85.9861L306.246 85.9086ZM320.67 44.1949C320.67 40.6283 318.964 37.9921 314.777 37.9921C306.944 37.9921 299.034 47.6064 296.475 58.8489C311.519 58.5388 320.67 52.6462 320.67 44.2724V44.1949Z" fill="white"/>
<path d="M414.819 83.505C414.819 82.8847 414.975 82.0318 415.595 80.0934C417.999 71.1769 419.162 62.6481 419.162 55.2048C419.162 25.2763 401.093 2.09344 377.673 2.09344C365.73 2.09344 358.13 8.14115 358.13 14.6541C358.13 17.6004 359.681 19.7714 359.681 22.4851C359.681 24.9662 358.207 26.2843 356.269 26.2843C354.097 26.2843 352.469 24.7336 352.469 20.3917C352.469 10.002 361.775 0 378.603 0C404.815 0 424.436 23.9583 424.436 56.5229C424.436 66.2923 422.652 75.5189 420.558 82.6521C428.003 79.5507 436.456 72.6501 442.583 64.2763C448.244 56.6779 452.199 47.9165 452.199 39.2326C452.199 26.7495 444.211 25.0437 444.211 20.4692C444.211 18.6084 445.607 17.5229 447.158 17.5229C450.958 17.5229 455.689 24.4235 455.689 34.9682C455.689 45.5129 450.725 56.9881 443.901 65.9046C437.542 74.2008 429.321 81.2565 421.566 84.4354C419.705 85.2107 418.232 85.6759 417.068 85.6759C415.672 85.6759 414.819 84.8231 414.819 83.505Z" fill="white"/>
<path d="M462.048 80.7913C462.048 79.4732 462.358 77.4573 462.824 74.8211L468.252 44.6601H459.566V43.342C464.685 43.342 471.587 40.2406 473.526 36.2088H474.611L467.477 76.1392C467.321 77.1471 467.166 78 467.166 78.6203C467.166 80.171 467.787 81.2565 469.183 81.2565C471.121 81.2565 474.223 78.9304 477.713 74.1233L478.644 75.2088C474.766 81.2565 470.346 85.9086 466.236 85.9086C463.366 85.9086 461.97 83.7376 461.97 80.7913H462.048ZM475.077 16.8251C477.403 16.8251 479.109 18.5308 479.109 20.9344C479.109 23.6481 476.938 25.7416 474.146 25.7416C471.819 25.7416 470.113 24.0358 470.113 21.6322C470.113 18.9185 472.285 16.8251 475.077 16.8251Z" fill="white"/>
<path d="M589.306 102.734C589.306 100.408 588.065 99.4771 586.824 98.5467C585.584 97.6939 584.963 97.0736 584.963 96.0656C584.963 95.1352 585.739 94.2823 586.824 94.2823C589.539 94.2823 591.09 99.3221 591.09 103.044C591.09 109.169 586.592 117 572.4 117C541.147 117 508.498 79.6282 491.049 79.6282C485.931 79.6282 484.38 82.8847 483.605 84.8231L481.898 84.2803C482.286 82.7296 483.449 80.6362 485.776 78.0775L517.882 42.334L517.494 41.8688C516.486 42.4115 514.78 42.9543 512.764 42.9543C507.335 42.9543 501.209 39.0775 496.866 39.0775C493.143 39.0775 492.833 41.8688 492.833 46.3658C492.833 47.839 492.213 49.1571 490.507 49.1571C489.188 49.1571 488.18 48.3042 488.18 46.3658C488.18 42.334 492.523 36.1312 502.062 36.1312C507.568 36.1312 511.755 38.1471 517.649 38.1471C520.519 38.1471 523.078 37.6819 524.474 36.1312L525.249 36.9066L488.956 77.3797L489.343 77.7674C490.351 76.9921 492.058 76.3718 494.384 76.3718C511.135 76.3718 543.086 112.27 572.788 112.27C582.404 112.27 589.306 108.549 589.306 102.889V102.734Z" fill="white"/>
<path d="M524.085 67.3002C524.085 51.173 535.796 36.0537 550.375 36.0537C556.269 36.0537 560.689 38.4573 560.689 41.7138C560.689 43.2644 559.604 44.5825 557.587 44.5825C553.089 44.5825 553.322 38.2247 546.963 38.2247C537.579 38.2247 529.669 52.336 529.669 65.8271C529.669 75.9066 534.012 82.6521 542.465 82.6521C548.669 82.6521 554.097 79.008 558.673 72.1074L559.448 73.1929C556.346 77.9225 550.453 85.7535 539.906 85.7535C529.359 85.7535 524.008 78.3102 524.008 67.1452L524.085 67.3002Z" fill="white"/>
<path d="M595.357 80.7912C595.357 79.3956 595.667 77.4572 596.133 74.8986L597.606 66.9901H596.986C592.798 75.3638 585.198 85.831 576.357 85.831C569.765 85.831 566.043 80.5586 566.043 70.6342C566.043 53.3439 577.676 35.9761 591.79 35.9761C596.908 35.9761 600.553 38.3022 603.5 38.3022C605.051 38.3022 605.982 37.6819 607.067 35.9761H608.153L600.863 75.6739C600.553 77.0696 600.475 78.1551 600.475 78.6203C600.475 80.0934 601.096 81.1014 602.492 81.1014C604.431 81.1014 607.533 78.7753 611.022 73.9682L611.953 75.0537C608.075 81.1014 603.655 85.7535 599.545 85.7535C596.675 85.7535 595.28 83.5825 595.28 80.6362L595.357 80.7912ZM578.218 82.0318C583.724 82.0318 590.859 75.1312 595.202 66.835C597.994 61.6402 599.312 56.6004 600.243 51.6382L601.949 42.7217C599.312 39.8529 595.59 37.6819 591.635 37.6819C580.933 37.6819 571.704 52.7236 571.704 69.3936C571.704 77.6898 573.953 81.9543 578.218 81.9543V82.0318Z" fill="white"/>
<path d="M649.333 80.7913C649.333 79.4732 649.643 77.4573 650.108 74.8211L654.684 49.5448C655.072 47.3738 655.227 46.2108 655.227 44.9702C655.227 42.1014 654.141 40.6283 651.892 40.6283C645.765 40.6283 636.615 51.4831 631.031 63.8887C628.239 70.0915 626.688 75.9066 625.835 80.8688L625.292 84.2028H620.329L627.619 44.6601H618.855V43.342C624.129 43.342 630.953 40.2406 632.892 36.2088H634.133L629.015 64.0438H629.402C633.978 52.8012 644.37 36.0537 654.684 36.0537C658.406 36.0537 660.423 38.3798 660.423 42.179C660.423 43.4195 660.267 45.8231 659.647 48.847L654.684 76.0617C654.529 77.0696 654.374 77.9225 654.374 78.5428C654.374 80.0935 654.994 81.179 656.39 81.179C658.329 81.179 661.431 78.8529 664.92 74.0458L665.851 75.1312C661.818 81.179 657.553 85.831 653.443 85.831C650.574 85.831 649.178 83.6601 649.178 80.7137L649.333 80.7913Z" fill="white"/>
<path d="M672.285 67.4553C672.285 51.7157 682.832 36.1312 697.567 36.1312C707.726 36.1312 712.999 43.5746 712.999 54.7396C712.999 70.4791 702.53 85.9861 687.718 85.9861C677.559 85.9861 672.285 78.6203 672.285 67.4553ZM688.338 84.2803C699.195 84.2803 707.028 69.7038 707.028 53.8867C707.028 43.497 703.693 37.837 696.869 37.837C686.012 37.837 678.179 52.4135 678.179 68.2306C678.179 78.6203 681.514 84.2803 688.338 84.2803Z" fill="white"/>
</g>
</svg>
