<svg viewBox="0 0 37 31" xmlns="http://www.w3.org/2000/svg">
<g>
<path d="M13.4031 31C9.73482 31 7.30859 28.5061 7.30859 24.2143C7.30859 18.0955 12.0166 12.3536 17.3312 12.3536C19.3531 12.3536 20.9128 13.1946 20.9128 15.2535C20.9128 19.0524 15.656 21.4013 9.64817 21.4883C9.50375 22.2133 9.44599 22.9963 9.44599 23.7213C9.44599 27.4042 11.2079 29.8401 14.3562 29.8401C17.2446 29.8401 19.0643 27.8971 20.4218 25.9542L20.7395 26.3312C19.2953 28.5931 17.0424 31.029 13.4319 31.029L13.4031 31ZM18.7754 15.3985C18.7754 14.0646 18.14 13.0786 16.5803 13.0786C13.663 13.0786 10.7169 16.6455 9.76371 20.8794C15.3671 20.7634 18.7754 18.5594 18.7754 15.4275V15.3985Z"/>
<path d="M24.84 30.217C24.84 29.985 24.8977 29.666 25.0422 28.9411C25.5332 26.3312 25.7642 23.8662 25.7642 21.6043C25.7642 10.7877 19.3232 0.811974 9.84934 0.811974C4.99688 0.811974 1.96409 3.27689 1.96409 5.79981C1.96409 7.07577 2.77283 7.88775 2.77283 9.04771C2.77283 9.91768 2.22404 10.4107 1.44418 10.4107C0.664325 10.4107 0 9.71469 0 7.91675C0 2.78391 4.99688 0 10.2248 0C21.1717 0 27.6128 10.9326 27.6128 21.9523C27.6128 24.8812 27.2373 27.6941 26.7174 29.927C29.4902 28.7091 31.8876 26.7951 33.534 24.8232C34.9493 23.0833 36.0757 20.9953 36.0757 18.6464C36.0757 15.2825 33.6206 14.9055 33.6206 13.5426C33.6206 12.8466 34.1116 12.3826 34.7182 12.3826C35.9602 12.3826 37 14.6155 37 17.4284C37 20.7343 35.9024 23.1413 34.0827 25.3162C32.3497 27.3751 29.7213 29.3761 27.4106 30.42C26.6596 30.797 26.1397 31 25.6776 31C25.1577 31 24.84 30.681 24.84 30.246V30.217Z"/>
</g>
</svg>
