<svg viewBox="0 0 274 52" xmlns="http://www.w3.org/2000/svg">
<path d="M37.7359 1.97137V2.24779H31.7928L12.7196 26.4349C28.683 27.0568 28.4066 49.378 35.8701 49.378C36.3538 49.378 37.0449 49.1016 37.3213 48.6179L37.7359 48.8252C37.0449 49.7927 36.0774 50 35.4554 50C27.3009 50 28.2684 28.1625 11.8212 27.6097L8.22768 32.1707V49.378L14.1708 49.7236V50H0.764238V49.7236L6.77645 49.378V2.24779H0.833344V1.97137L6.77645 1.62584H8.22768L14.1708 1.97137V2.24779H8.22768V30.9268L30.8944 2.24779H24.8822V1.97137L30.8944 1.62584H31.7928L37.7359 1.97137ZM63.9325 51.0366C50.2495 51.0366 40.16 40.3252 40.16 25.6056C40.16 10.9551 50.2495 0.589249 63.9325 0.589249C77.4772 0.589249 87.6358 10.9551 87.6358 25.6056C87.6358 40.3252 77.4772 51.0366 63.9325 51.0366ZM63.9325 50.3455C77.2699 50.3455 86.1846 39.0122 86.1846 25.6056C86.1846 12.3373 77.2699 1.28031 63.9325 1.28031C50.4568 1.28031 41.6112 12.3373 41.6112 25.6056C41.6112 39.0122 50.4568 50.3455 63.9325 50.3455ZM131.661 48.6179L132.007 48.8252C131.316 49.7927 130.348 50 129.726 50C121.503 50 127.446 27.4024 112.173 27.3333H111.62H100.011C100.011 34.1747 99.9415 41.0853 99.9415 49.378L105.885 49.7236V50H92.4781V49.7236L98.4903 49.378V2.24779L92.4781 2.10958V1.83316L98.4903 1.62584H110.1C122.194 1.62584 127.1 7.0161 127.169 14.4795C127.238 21.7357 122.47 25.6747 116.251 26.9186C127.999 29.6137 123.23 49.378 130.21 49.378C130.694 49.378 131.385 49.1016 131.661 48.6179ZM100.011 26.5731H109.893C121.019 26.5731 125.718 22.0812 125.718 14.8251C125.718 7.70716 121.779 2.24779 108.925 2.24779H99.9415C100.011 11.508 100.011 18.9714 100.011 26.5731ZM158.548 51.0366C144.865 51.0366 134.776 40.3252 134.776 25.6056C134.776 10.9551 144.865 0.589249 158.548 0.589249C172.093 0.589249 182.252 10.9551 182.252 25.6056C182.252 40.3252 172.093 51.0366 158.548 51.0366ZM158.548 50.3455C171.886 50.3455 180.8 39.0122 180.8 25.6056C180.8 12.3373 171.886 1.28031 158.548 1.28031C145.073 1.28031 136.227 12.3373 136.227 25.6056C136.227 39.0122 145.073 50.3455 158.548 50.3455ZM206.167 24.1544C214.598 25.9511 223.444 28.3007 223.444 38.5284C223.444 43.504 217.915 51.0366 206.236 51.0366C198.289 51.0366 191.309 47.0976 189.236 41.3618L189.167 51.0366H188.821L188.476 36.1788H189.236V36.7317C189.374 45.9919 197.598 50.2764 206.236 50.2764C215.151 50.2764 221.785 44.9553 221.785 38.1138C221.785 28.9918 213.078 26.4349 205.061 24.7072C196.561 22.9105 190.065 20.4227 190.065 12.3373C190.065 6.53236 195.11 0.589249 205.13 0.589249C212.594 0.589249 217.984 4.39008 220.403 9.50392L220.472 0.589249H220.818L221.163 15.447H220.403V14.8251C220.265 6.32504 213.354 1.28031 205.13 1.28031C196.492 1.28031 191.586 6.46325 191.586 12.821C191.586 20.1462 198.704 22.5649 206.167 24.1544ZM266.633 1.62584H267.532L273.475 1.97137V2.24779H267.532V36.2479C267.532 44.2642 262.832 51.0366 250.808 51.0366C239.751 51.0366 235.674 44.2642 235.674 36.2479V2.24779H229.661V1.97137L235.674 1.62584H237.125L243.068 1.97137V2.24779H237.125V36.2479C237.125 44.2642 240.995 50.2764 250.808 50.2764C262.141 50.2764 266.633 44.2642 266.633 36.2479V2.24779H260.621V1.97137L266.633 1.62584Z" />
</svg>
