<svg viewBox="0 0 277 51" xmlns="http://www.w3.org/2000/svg">
<path d="M27.6279 47.0884C28.9953 47.5442 29.7116 49.0419 29.5814 50.3442C29.3209 49.0419 28.0186 48.0651 25.8047 48H6.7907C2.62326 48.1302 0.995349 48.5209 0.27907 49.7581C0.474419 48.6512 1.45116 47.6093 3.07907 47.2837C1.45116 46.8279 0.474419 45.6558 0.27907 45.0047C0.930233 45.7209 2.03721 46.1767 3.86047 46.4372V8.27907C3.73023 4.11163 3.2093 2.48372 1.64651 1.76744C3.01395 1.96279 4.3814 2.93953 4.77209 4.56744C5.35814 2.93953 6.7907 1.96279 7.63721 1.76744C6.26977 2.67907 5.87907 4.63256 5.87907 8.14883C5.94419 10.6233 5.87907 42.0093 5.87907 46.5674H24.6977C27.3023 46.6326 27.8884 45.786 28.4093 45.0698C29.1907 44.0279 29.3209 42.2047 29.0605 40.9023C29.5163 42.2047 29.8419 45.2 27.6279 47.0884ZM78.3423 42.7256C80.6865 47.414 82.2493 47.5442 84.333 48C81.7283 48 79.4493 47.4791 78.2772 46.1116C78.0167 47.4791 75.6725 48 73.7842 48C74.4353 48 78.3423 47.2186 76.519 43.2465L69.8121 28.8558H48.7144L41.3562 43.8977C40.119 46.5023 42.2679 47.7395 43.6353 48C41.1609 48 40.119 47.3488 39.8586 46.1767C38.4911 47.6744 36.8632 48 34.3888 48C36.4725 47.5442 38.3609 47.0233 40.119 43.6372L58.6772 5.2186C57.7656 3.78604 56.919 3.65581 56.2679 3.52558C54.9656 3.33023 53.2725 3.98139 52.2307 4.76279C53.2074 3.78604 56.0725 2.09302 59.0028 3.06976C58.8725 1.63721 59.7842 0.53023 61.0214 0.0744142C59.9795 0.855811 59.6539 2.4186 60.5004 4.50232C60.7609 5.15348 75.933 36.9953 78.3423 42.7256ZM69.1609 27.4233L59.5237 6.71628L49.4307 27.4233H69.1609ZM119.894 14.2698C120.219 21.2372 116.117 27.3581 108.303 27.3581H93.6517V41.6186C93.782 45.7209 94.3029 47.2837 95.8657 48C94.4331 47.8047 93.1308 46.8279 92.675 45.2C92.1541 46.8279 90.6564 47.8047 89.8099 48C91.1773 47.1535 91.6331 45.1349 91.6331 41.6837V3.72093C89.7448 3.85116 89.2238 4.56744 88.768 5.2186C87.9866 6.26046 87.8564 8.08372 88.1169 9.38604C87.661 8.08372 87.3355 5.08837 89.5494 3.2C88.182 2.74418 87.4657 1.37674 87.5959 0.0744142C87.8564 1.37674 89.1587 2.35349 91.3727 2.4186H101.27C114.554 2.4186 119.503 5.93488 119.894 14.2698ZM107.522 26.0558C112.861 26.0558 118.201 23.3209 117.875 14.2698C117.615 7.49767 113.773 3.72093 101.335 3.72093H93.6517V26.0558H107.522ZM126.674 41.6186C126.805 45.6558 127.326 47.2186 128.888 48C127.456 47.8047 126.153 46.8279 125.698 45.2C125.177 46.8279 123.679 47.8047 122.832 48C124.2 47.1535 124.656 45.1349 124.656 41.6837V8.08372C124.656 4.63256 124.2 2.61395 122.832 1.76744C123.679 1.96279 125.177 2.93953 125.698 4.56744C126.153 2.93953 127.391 1.96279 128.823 1.76744C127.26 2.54884 126.739 4.11163 126.674 8.14883V41.6186ZM176.268 34.2605C177.31 32.893 178.742 32.6977 179.589 32.7628C177.57 33.3488 176.789 35.4977 176.073 36.6047C172.361 43.8977 166.37 48.6512 156.994 48.6512C143.84 48.6512 134.398 38.5581 134.398 25.4047C134.398 12.3814 143.515 2.22325 156.473 1.83255C166.956 1.96279 168.584 7.82325 172.556 7.82325C173.012 7.82325 173.338 7.69302 173.728 7.43256C173.273 8.4093 171.384 8.93023 170.342 8.4093C171.189 10.8837 169.887 13.0326 168.78 14.0744C172.231 7.82325 165.068 3.2 156.733 3.2C144.556 3.2 136.612 13.0977 136.612 24.9488C136.612 37.5814 146.054 47.2837 157.71 47.2837C165.98 47.2837 171.254 43.0512 174.38 36.6047C175.942 33.2186 175.617 31.7209 174.249 30.5488C175.747 31.2 176.333 32.8279 176.268 34.2605ZM187.021 41.6186C187.152 45.6558 187.673 47.2186 189.235 48C187.803 47.8047 186.5 46.8279 186.045 45.2C185.524 46.8279 184.026 47.8047 183.18 48C184.547 47.1535 185.003 45.1349 185.003 41.6837V8.08372C185.003 4.63256 184.547 2.61395 183.18 1.76744C184.026 1.96279 185.524 2.93953 186.045 4.56744C186.5 2.93953 187.738 1.96279 189.17 1.76744C187.607 2.54884 187.086 4.11163 187.021 8.14883V41.6186ZM212.392 2.35349C228.736 2.22325 235.248 11.8605 235.248 25.6C235.248 35.9535 231.862 48 212.457 48H199.629C197.415 48 196.113 49.0419 195.852 50.3442C195.722 49.0419 196.438 47.8047 197.806 47.3488C195.592 45.4605 195.917 42.3349 196.373 41.0326C196.113 42.3349 196.243 44.1581 197.024 45.2C197.415 45.7209 197.806 46.4372 199.108 46.6977V3.78604C197.22 3.91628 196.699 4.56744 196.243 5.2186C195.462 6.26046 195.331 8.08372 195.592 9.38604C195.136 8.08372 194.81 4.89302 197.024 3.00465C195.657 2.54884 194.941 1.37674 195.071 0.0744142C195.331 1.37674 196.634 2.35349 198.848 2.4186L212.392 2.35349ZM212.522 46.6977C226.196 46.6977 233.034 39.4047 233.034 25.6C233.034 13.6837 227.369 3.91628 212.457 3.91628C211.871 3.91628 211.22 3.72093 204.252 3.72093L201.127 3.78604V46.6977H212.522ZM272.845 40.9023C273.821 40.2512 275.514 40.2512 276.426 40.9023C274.993 40.6419 273.691 41.3581 273.17 42.2047C271.738 44.5488 271.152 48 263.598 48H262.491H261.84H244.714C242.5 48.0651 241.198 49.0419 240.938 50.3442C240.807 49.0419 241.524 47.8047 242.891 47.3488C240.677 45.4605 241.003 42.3349 241.459 41.0326C241.198 42.3349 241.328 44.2233 242.11 45.2C242.566 45.7209 242.956 46.307 244.193 46.5674V3.72093C242.305 3.85116 241.784 4.56744 241.328 5.2186C240.547 6.26046 240.417 8.08372 240.677 9.38604C240.221 8.08372 239.896 5.08837 242.11 3.2C240.742 2.74418 240.026 1.37674 240.156 0.0744142C240.417 1.37674 241.719 2.35349 243.933 2.4186H268.417C270.631 2.35349 271.933 1.37674 272.193 0.0744142C272.324 1.37674 271.607 2.61395 270.24 3.06976C272.454 4.95814 272.128 8.08372 271.673 9.38604C271.933 8.08372 271.803 6.06511 271.021 5.02325C270.566 4.37209 270.045 3.78604 267.961 3.72093H246.212V24.493H262.361C264.575 24.4279 265.877 23.4512 266.138 22.1488C266.268 23.4512 265.552 24.8186 264.184 25.2744C266.398 27.1628 266.073 30.1581 265.617 31.4605C265.877 30.1581 265.747 28.3349 264.966 27.293C264.445 26.5767 263.859 25.7302 261.254 25.7953L246.212 25.9256V46.6977H261.84C265.291 46.6977 267.114 46.5023 268.807 45.7209C272.649 43.9628 272.845 38.493 269.068 37.1907C270.956 37.4512 272.649 38.7535 272.845 40.9023Z" />
</svg>
