<svg viewBox="0 0 416 63" xmlns="http://www.w3.org/2000/svg">
<path d="M24.0195 44.0208C24.0195 50.4559 24.4684 51.8776 30.9784 51.8776V53H11.3737V51.8776C17.734 51.8776 18.3326 50.4559 18.3326 44.0208V6.60726H9.27855C3.74135 6.60726 2.54412 10.5731 1.19723 16.3348H0L2.69377 4.36245H39.6583L42.3521 16.3348H41.1549C39.6583 9.97447 38.0869 6.60726 32.8491 6.60726H24.0195V44.0208ZM59.1256 13.3417C59.1256 13.2669 59.0508 13.192 59.0508 13.1172L50.3709 34.5926H67.8804L59.1256 13.3417ZM36.1537 53V51.8776C39.7454 51.8776 41.6161 50.0069 43.7861 44.6194L57.7039 10.0493C55.9829 6.68208 54.4115 5.48485 50.6702 5.48485V4.36245H61.5201L77.7575 43.7215C79.7779 48.5852 81.1996 51.8776 86.0633 51.8776V53H68.2545V51.8776C74.4651 51.8776 73.7917 48.9593 71.3224 43.048L68.7783 36.8374H49.5478L46.7043 43.7963C44.235 49.8573 44.6092 51.8776 50.5205 51.8776V53H36.1537ZM97.9643 43.8711C97.9643 50.3811 98.7874 51.8776 104.923 51.8776V53H88.6858V51.8776C94.6719 51.8776 95.5699 50.3811 95.5699 43.8711V11.2465C92.2775 7.2807 90.5565 5.48485 86.6655 5.48485V4.36245H97.2909L128.943 42.8235H129.092V13.7906C129.092 7.20587 128.194 5.48485 122.208 5.48485V4.36245H138.446V5.48485C132.46 5.48485 131.487 7.20587 131.487 13.7906V53.7483H130.514L98.114 14.3144H97.9643V43.8711ZM188.341 48.1362C190.885 52.0272 195.001 51.8776 199.116 51.8776V53H184.675L183.403 50.5307C178.988 52.4762 174.124 53.7483 169.56 53.7483C153.771 53.7483 143.221 44.2452 143.221 29.4295C143.221 15.2124 153.771 3.61418 168.138 3.61418C177.491 3.61418 181.607 9.15137 185.498 9.15137C188.416 9.15137 189.988 3.83866 191.11 0.621094H192.457L185.797 18.8041H184.6C181.981 10.1241 176.593 5.78416 168.512 5.78416C157.064 5.78416 149.88 15.5117 149.88 27.933C149.88 41.0277 157.737 51.5783 169.56 51.5783C175.621 51.5783 179.138 50.0817 182.206 48.2111L174.049 30.7764C170.084 31.2253 169.56 32.8715 167.315 37.8849H166.193L168.662 28.4567H172.927H175.321H176.593H182.954H190.885L193.355 37.8849H192.232C189.613 31.9736 189.314 30.7016 182.954 30.7016H176.818L188.341 48.1362ZM213.739 11.1717V26.5112H224.065C230.724 26.5112 230.724 25.1644 233.343 19.3278H234.466L232.296 27.5588L234.466 35.9394H233.343C230.724 30.0281 230.425 28.7561 224.065 28.7561H213.739V46.1907C213.739 49.6328 214.786 50.7552 218.378 50.7552H228.255C234.541 50.7552 237.085 47.7621 240.901 41.0277H242.023L237.908 53H201.168V51.8776C207.229 51.8776 208.052 50.4559 208.052 43.8711V12.8927C208.052 6.53243 206.78 5.48485 201.168 5.48485V4.36245H237.534L240.901 16.3348H239.704C237.384 9.45068 232.969 6.60726 226.759 6.60726H218.378C214.786 6.60726 213.739 7.72966 213.739 11.1717ZM299.823 62.6527C277.375 62.6527 272.511 29.5791 259.192 29.205V44.0208C259.192 50.4559 259.641 51.8776 266.151 51.8776V53H246.546V51.8776C252.907 51.8776 253.505 50.4559 253.505 44.0208V10.9472C253.505 6.90656 252.832 5.48485 247.145 5.48485V4.36245H265.403C278.423 4.36245 284.184 8.85207 284.184 16.4844C284.184 24.1916 278.123 29.1302 267.423 29.2798V29.3547C283.735 33.4702 285.232 61.5303 299.823 61.5303V62.6527ZM259.192 27.1099H265.253C272.436 27.1099 277.45 23.593 277.45 17.0082C277.45 10.2738 272.436 6.53243 265.178 6.53243C263.158 6.53243 261.137 6.68208 259.192 6.90656V27.1099ZM306.982 44.3949C306.982 50.83 307.73 51.8776 313.941 51.8776V53H294.336V51.8776C300.023 51.8776 301.295 50.4559 301.295 44.3949V12.9676C301.295 6.60726 299.948 5.48485 294.336 5.48485V4.36245H313.941V5.48485C308.179 5.48485 306.982 6.83174 306.982 12.9676V44.3949ZM330.045 43.8711C330.045 50.3811 330.868 51.8776 337.004 51.8776V53H320.766V51.8776C326.753 51.8776 327.65 50.3811 327.65 43.8711V11.2465C324.358 7.2807 322.637 5.48485 318.746 5.48485V4.36245H329.372L361.023 42.8235H361.173V13.7906C361.173 7.20587 360.275 5.48485 354.289 5.48485V4.36245H370.526V5.48485C364.54 5.48485 363.567 7.20587 363.567 13.7906V53.7483H362.595L330.195 14.3144H330.045V43.8711ZM387.653 11.1717V26.5112H397.979C404.639 26.5112 404.639 25.1644 407.258 19.3278H408.38L406.21 27.5588L408.38 35.9394H407.258C404.639 30.0281 404.339 28.7561 397.979 28.7561H387.653V46.1907C387.653 49.6328 388.701 50.7552 392.292 50.7552H402.169C408.455 50.7552 410.999 47.7621 414.815 41.0277H415.938L411.822 53H375.082V51.8776C381.143 51.8776 381.966 50.4559 381.966 43.8711V12.8927C381.966 6.53243 380.694 5.48485 375.082 5.48485V4.36245H411.448L414.815 16.3348H413.618C411.298 9.45068 406.884 6.60726 400.673 6.60726H392.292C388.701 6.60726 387.653 7.72966 387.653 11.1717Z" />
</svg>
